<svg transform="scale(1)" id="_0588_Busy" xmlns="http://www.w3.org/2000/svg" viewBox="0 0 500 500" class="show_show__wrapper__graphic__5Waiy "><title>React</title><defs><style>.cls-1,.cls-2,.cls-3,.cls-4{fill:#fff;}.cls-5{fill:#f4a28c;}.cls-6{fill:#a5a5a5;}.cls-2{opacity:.24;}.cls-7{fill:#e6e6e6;}.cls-8{fill:#ce8172;opacity:.31;}.cls-3{opacity:.33;}.cls-4{opacity:.2;}.cls-9{fill:#24285b;}.cls-10{fill:#000001;opacity:.08;}.cls-11{fill:#ffd200;}.cls-12{fill:#68e1fd;}</style></defs><g id="person2"><rect class="cls-7" x="302.75" y="41.39" width="141.7" height="251.92"></rect><path class="cls-12" d="m360.8,181.48s-16.15,16.55-39.98,17.92-39.98-29.83-39.98-29.83l11.67-6.12s6.83,11.04,20.11,12.16,37.08-22.61,37.08-22.61l11.09,28.49Z"></path><path class="cls-10" d="m360.8,181.48s-16.15,16.55-39.98,17.92-39.98-29.83-39.98-29.83l11.67-6.12s6.83,11.04,20.11,12.16,37.08-22.61,37.08-22.61l11.09,28.49Z"></path><path class="cls-12" d="m367.35,90.73l17.95-4.53s30.81-8.17,59.15,4.53v144.22h-98.73s4.52-5.9-4.67-38.84-26.29-59.1,26.3-105.38Z"></path><polygon class="cls-9" points="345.44 217.65 444.08 214.49 443.66 294.18 341.06 294.18 345.44 217.65"></polygon><path class="cls-10" d="m367.35,216.95s36.89-2.79,43.02-30.27c0,0-62.94,13.31-77.43-49.13h111.51v76.94l-77.1,2.45Z"></path><polygon class="cls-10" points="345.44 217.65 444.08 214.49 443.66 294.18 341.06 294.18 345.44 217.65"></polygon><path class="cls-5" d="m351.56,63.07l-1.75,4.56c-.43,1.13.46,2.32,1.66,2.23l3.99-.3-3.9-6.5Z"></path><path class="cls-5" d="m349.82,55.61s2.03,11.61,5.95,18.65c1.59,2.85,5.25,3.89,8.08,2.26,3.52-2.03,7.68-5.78,7.35-12.14l.76-10.86s.24-6.82-7.42-9.73c-7.65-2.91-16.32,4.8-14.73,11.81Z"></path><polygon class="cls-5" points="373.41 58.29 388.87 94.56 368.37 100.77 364.99 67.53 373.41 58.29"></polygon><path class="cls-8" d="m365.78,75.26s4.41-3.15,4.82-8.48c0,0,4.52,8.89-4.18,14.86l-.65-6.37Z"></path><path class="cls-11" d="m349.24,56.31c2.75,3.02,7.56,5.6,15.46,2.47l10.52,3.02s5.54-4.27,4.22-15.78c-1.33-11.52-9.6-18.9-23.15-13.94-7.7,2.82-9.95,8.5-10.46,12.88-.48,4.1.63,8.3,3.41,11.35Z"></path><path class="cls-11" d="m370.53,32.38s-3.68-14.12,9.78-14.24c13.46-.12,20.14,16.17-2.99,23.67l-6.79-9.42Z"></path><path class="cls-9" d="m370.08,28.53s12.03,1.62,11.07,11.84l-3.48,2.7-9.24-11.71,1.65-2.83Z"></path><path class="cls-5" d="m364.64,59.96s-1.08-4.41,2.3-4.95c3.39-.54,4.99,5.82.67,7.6l-2.97-2.66Z"></path><path class="cls-12" d="m444.45,90.35s-22.98,42.89-62.04,39.83-87.3-70.62-87.3-70.62l-15.26,13.18s56.12,81.96,94.89,95.74c38.77,13.79,69.7-9.88,69.7-9.88v-68.25Z"></path><path class="cls-4" d="m444.45,90.35s-22.98,42.89-62.04,39.83-87.3-70.62-87.3-70.62l-15.26,13.18s56.12,81.96,94.89,95.74c38.77,13.79,69.7-9.88,69.7-9.88v-68.25Z"></path><g id="sheet"><path class="cls-6" d="m299.85,83.19s1.39-13.59-9.47-13.31-9.47,14.35-9.47,14.35l18.95-1.04Z"></path><path class="cls-7" d="m290.37,69.87l-48.97.99c-4.99.1-9.34,3.41-10.78,8.19-1.38,4.58-2.21,11.3-.72,20.64,3.34,20.9.41,45.42.41,45.42h50.52s10.09-24.37,1.73-61.92c0,0-3.34-11.64,7.8-13.31Z"></path><rect class="cls-6" x="241.8" y="108.28" width="33.71" height="2"></rect><rect class="cls-6" x="241.8" y="117.73" width="33.71" height="2"></rect><rect class="cls-6" x="238.83" y="79.5" width="32.15" height="2"></rect><rect class="cls-6" x="238.83" y="88.41" width="33.71" height="2"></rect><rect class="cls-6" x="259.75" y="97.97" width="13.8" height="2"></rect><rect class="cls-6" x="238.83" y="97.97" width="13.8" height="2"></rect></g><path class="cls-5" d="m292.51,61.8s-14.83-2.3-23.23-2.25-16.59,5.87-10.62,10.96,24.51-.64,24.51-.64l9.35-8.07Z"></path><path class="cls-5" d="m283.36,168.24s-10.45-1.06-14.09-7.53c-3.64-6.47,14.09-1.43,14.09-1.43,0,0-3.72-1.97,0-4.7,3.72-2.72,7.01,9.98,7.01,9.98l-7.01,3.68Z"></path><path class="cls-10" d="m283.36,168.24s-10.45-1.06-14.09-7.53c-3.64-6.47,14.09-1.43,14.09-1.43,0,0-3.72-1.97,0-4.7,3.72-2.72,7.01,9.98,7.01,9.98l-7.01,3.68Z"></path></g><g id="person1"><path class="cls-9" d="m327.47,250.57s62.12-2.92,75.97,50.1c13.85,53.02-25.98,138.91-25.98,138.91l-199.7,5.15,149.71-194.15Z"></path><g id="person"><path class="cls-5" d="m172.93,211.89s2.35,16.73,7.62,27.01c2.14,4.17,7.33,5.83,11.47,3.64,5.14-2.73,11.29-7.91,11.12-17.03l1.61-15.51s.67-9.76-10.15-14.3c-10.82-4.54-23.61,6.07-21.67,16.2Z"></path><polygon class="cls-5" points="202.63 211.87 238.05 242.16 223.21 269.63 201.78 235.58 202.63 211.87"></polygon><path class="cls-12" d="m223.7,246.02c4.24-1.02,8.47-2.19,12.62-3.52,18.71-5.98,80.22-20.47,96.65,19.68,19.71,48.18-43.45,194.82-43.45,194.82l-100.75-8.76-24.09-127.03s-20.76-56.06,59.02-75.19Z"></path><path class="cls-5" d="m174.95,222.35l-3.13,7.4c-.77,1.83.62,3.84,2.6,3.76l6.57-.26-6.04-10.89Z"></path><path class="cls-10" d="m299.36,243.3s-27.92,12.98-27.5,56.42c.41,43.44-26.82,57.11-49.4,67.02-22.58,9.91-32.53,14.48-32.53,14.48l-12.85,5.3,11.71,61.73,100.75,8.76,24.9-66.26-15.07-147.45Z"></path><path class="cls-8" d="m202.39,236.55s3.76-5.38,3.61-10.44c0,0,9.9,7,2.53,20.19l-6.14-9.75Z"></path><path class="cls-10" d="m181.29,265.44s47.29,8.95,58.35-23.96l-24.77,6.93s-18.59,4.72-33.58,17.04Z"></path><path class="cls-9" d="m206.55,222.81s-1.88,16.94-9.29,20.89c-7.41,3.95-18.59,7.6-20.43-6.25-1.15-8.61,9.16-7.76,20.89-8.06,0,0,2.85-11.73.42-18.2,0,0-7.46.31-8.08-6.29,0,0-14.17,12.74-19.68,4.53-5.51-8.21-6.02-13.5.89-18.47,6.91-4.96,28.75-7.74,36.29.64,7.55,8.38-1.01,31.2-1.01,31.2Z"></path><path class="cls-5" d="m204.54,220.82c-1.28-2.5-1.17-5.58.55-7.79,1.07-1.38,2.69-2.38,5.12-1.86,6.07,1.29,4.66,13.08-3.81,13.29l-1.87-3.63Z"></path><path class="cls-11" d="m92.45,382.65l-13.05-58.73c-.68-3.08,1.66-6,4.81-6h86.76c2.3,0,4.3,1.59,4.81,3.83l11.65,51.06c.51,2.24,2.51,3.83,4.81,3.83h33.33c2.72,0,4.93,2.21,4.93,4.93h0c0,2.72-2.21,4.93-4.93,4.93H97.26c-2.31,0-4.31-1.61-4.81-3.86Z"></path><path class="cls-5" d="m290.82,260.81c3-17.51,25-23.64,36.66-10.24,5.79,6.66,10.88,14.65,13.01,23.57,6.28,26.3,2.8,106.1-18.92,112.38-21.72,6.28-96-9.86-96-9.86h-30.04s5.68-17.63,19.43-16.44c13.75,1.2,18.56,3.59,18.56,3.59l63.34-5.38s-13.37-54.77-6.03-97.61Z"></path><path class="cls-12" d="m271.82,360.55v24.33s38.18,10.81,52.22,3.09,15.75-28.05,19.23-60.03c3.48-31.98,2.36-82.45-31.92-87.64-34.28-5.2-27.53,86.52-16.6,116.34l-22.93,3.92Z"></path><path class="cls-4" d="m271.82,360.55v24.33s38.18,10.81,52.22,3.09,15.75-28.05,19.23-60.03c3.48-31.98,2.36-82.45-31.92-87.64-34.28-5.2-27.53,86.52-16.6,116.34l-22.93,3.92Z"></path><circle class="cls-1" cx="133.03" cy="351.64" r="5.65"></circle><path class="cls-11" d="m317.92,381.19h-1.37c-6.87,0-12.46-5.59-12.46-12.46s5.59-12.46,12.46-12.46h1.37c6.87,0,12.46,5.59,12.46,12.46s-5.59,12.46-12.46,12.46Zm-1.37-20.92c-4.67,0-8.46,3.8-8.46,8.46s3.8,8.46,8.46,8.46h1.37c4.67,0,8.46-3.8,8.46-8.46s-3.8-8.46-8.46-8.46h-1.37Z"></path><path class="cls-3" d="m98.24,317.92s-.28,59.63,40.44,68.59h-41.41s-3.54.35-4.81-3.86l-13.05-58.73s-.69-5.1,4.81-6h14.03Z"></path><rect class="cls-9" x="292.07" y="352.22" width="28.05" height="34.29"></rect></g><path class="cls-2" d="m293.73,352.22s-6.64-15.9,6.64-23.3c13.28-7.4,15.15-5.67,10.38-20.07-4.76-14.4,2.39-29.43,14.9-30.08s24.76,12.11,16.59,23.34c-8.17,11.23,1.25,9.55,11.86,9.37s20.82,18.2,9.59,23.82c-11.23,5.62-39.5-3.44-46.3,16.92h-23.65Z"></path><path class="cls-12" d="m210.77,249.76s-89.22,13.92-114.66,35.37l9.58,20.62,19.27,5.35s42.78,2.65,77.81-5.9c35.03-8.55,8-55.43,8-55.43Z"></path><path class="cls-10" d="m210.77,249.76s-89.22,13.92-114.66,35.37l9.58,20.62,19.27,5.35s42.78,2.65,77.81-5.9c35.03-8.55,8-55.43,8-55.43Z"></path><path class="cls-5" d="m96.11,285.13s-12.41,11.58,0,24.41c12.41,12.82,70.82-12.2,70.82-12.2,0,0,15.23,1.03,18.13,8.07,2.9,7.03,17.35,6.55,20.47-6.24,3.11-12.79-23.33-16.5-34.31-18.99,0,0-42.42-5.39-75.1,4.96Z"></path><rect class="cls-9" x="163.01" y="276.54" width="14.05" height="24.3"></rect><circle class="cls-11" cx="170.04" cy="280.68" r="9.2"></circle></g><g id="table"><rect class="cls-7" x="46.36" y="386.78" width="396.81" height="79.75"></rect><rect class="cls-10" x="46.36" y="386.78" width="396.81" height="17.48"></rect></g><g id="x"><rect class="cls-9" x="78.43" y="196.85" width="54.33" height="38.42"></rect><rect class="cls-1" x="95.65" y="213.34" width="19.88" height="4" transform="translate(-121.34 137.74) rotate(-45)"></rect><rect class="cls-1" x="103.59" y="205.4" width="4" height="19.88" transform="translate(-121.34 137.74) rotate(-45)"></rect></g><g id="clock"><circle class="cls-7" cx="148.18" cy="118.73" r="40.35"></circle><circle class="cls-7" cx="148.18" cy="118.73" r="40.35"></circle><circle class="cls-1" cx="148.18" cy="118.73" r="25.68"></circle><polygon class="cls-6" points="135.06 123.71 134.15 118.79 145.68 116.65 145.68 100.65 150.68 100.65 150.68 120.81 135.06 123.71"></polygon></g><g id="_"><rect class="cls-11" x="385.69" y="272.13" width="78.75" height="57.44"></rect><path class="cls-1" d="m425.01,307.19c-.92,0-1.63-.3-2.11-.9s-.72-1.4-.72-2.39c0-.89.11-1.74.33-2.54.22-.8.57-1.61,1.05-2.41.48-.8,1.13-1.62,1.95-2.44.55-.58.98-1.1,1.28-1.54.31-.45.54-.86.69-1.23.15-.38.23-.79.23-1.23,0-.79-.29-1.4-.87-1.82-.58-.43-1.42-.64-2.52-.64s-2.12.13-3.08.39c-.96.26-1.88.62-2.77,1.1-1.03.55-1.94.73-2.72.54-.79-.19-1.4-.59-1.85-1.21-.45-.62-.69-1.34-.74-2.16-.05-.82.17-1.63.67-2.41.5-.79,1.28-1.44,2.34-1.95,1.4-.68,2.9-1.2,4.49-1.54,1.59-.34,3.04-.51,4.34-.51,2.4,0,4.49.38,6.29,1.16s3.19,1.83,4.19,3.18c.99,1.35,1.49,2.94,1.49,4.75,0,1.06-.15,2.05-.46,2.95-.31.91-.8,1.79-1.49,2.65-.68.86-1.64,1.75-2.88,2.67-1.06.79-1.88,1.49-2.47,2.11-.58.62-1,1.19-1.26,1.72s-.46,1.1-.59,1.72c-.14.62-.44,1.1-.9,1.46-.46.36-1.1.54-1.93.54Zm-.15,12.23c-1.54,0-2.77-.47-3.67-1.41-.91-.94-1.36-2.15-1.36-3.62s.45-2.61,1.36-3.52,2.13-1.36,3.67-1.36,2.84.45,3.7,1.36c.86.91,1.28,2.08,1.28,3.52s-.43,2.68-1.28,3.62c-.86.94-2.09,1.41-3.7,1.41Z"></path></g></svg>