<svg width="484" height="150" viewBox="0 0 484 150" fill="none" xmlns="http://www.w3.org/2000/svg">
<path d="M19.1135 139.139C19.6855 139.139 20.1585 139.326 20.5325 139.7C20.9285 140.052 21.1265 140.514 21.1265 141.086C21.1265 141.636 20.9285 142.098 20.5325 142.472C20.1585 142.824 19.6855 143 19.1135 143H8.3885C7.8165 143 7.3325 142.813 6.9365 142.439C6.5625 142.043 6.3755 141.559 6.3755 140.987V121.913C6.3755 121.341 6.5735 120.868 6.9695 120.494C7.3655 120.098 7.8715 119.9 8.4875 119.9C9.0155 119.9 9.4775 120.098 9.8735 120.494C10.2915 120.868 10.5005 121.341 10.5005 121.913V139.7L9.7745 139.139H19.1135ZM46.4218 143.33C44.5518 143.33 42.9238 142.945 41.5378 142.175C40.1738 141.383 39.1178 140.316 38.3698 138.974C37.6438 137.632 37.2808 136.114 37.2808 134.42C37.2808 132.44 37.6768 130.757 38.4688 129.371C39.2828 127.963 40.3388 126.885 41.6368 126.137C42.9348 125.389 44.3098 125.015 45.7618 125.015C46.8838 125.015 47.9398 125.246 48.9298 125.708C49.9418 126.17 50.8328 126.808 51.6028 127.622C52.3728 128.414 52.9778 129.338 53.4178 130.394C53.8798 131.45 54.1108 132.572 54.1108 133.76C54.0888 134.288 53.8798 134.717 53.4838 135.047C53.0878 135.377 52.6258 135.542 52.0978 135.542H39.4918L38.5018 132.242H50.6128L49.8868 132.902V132.011C49.8428 131.373 49.6118 130.801 49.1938 130.295C48.7978 129.789 48.2918 129.393 47.6758 129.107C47.0818 128.799 46.4438 128.645 45.7618 128.645C45.1018 128.645 44.4858 128.733 43.9138 128.909C43.3418 129.085 42.8468 129.382 42.4288 129.8C42.0108 130.218 41.6808 130.779 41.4388 131.483C41.1968 132.187 41.0758 133.078 41.0758 134.156C41.0758 135.344 41.3178 136.356 41.8018 137.192C42.3078 138.006 42.9458 138.633 43.7158 139.073C44.5078 139.491 45.3438 139.7 46.2238 139.7C47.0378 139.7 47.6868 139.634 48.1708 139.502C48.6548 139.37 49.0398 139.216 49.3258 139.04C49.6338 138.842 49.9088 138.677 50.1508 138.545C50.5468 138.347 50.9208 138.248 51.2728 138.248C51.7568 138.248 52.1528 138.413 52.4608 138.743C52.7908 139.073 52.9558 139.458 52.9558 139.898C52.9558 140.492 52.6478 141.031 52.0318 141.515C51.4598 141.999 50.6568 142.428 49.6228 142.802C48.5888 143.154 47.5218 143.33 46.4218 143.33ZM85.6835 125.015C86.2555 125.015 86.7285 125.202 87.1025 125.576C87.4765 125.95 87.6635 126.434 87.6635 127.028V140.987C87.6635 141.559 87.4765 142.043 87.1025 142.439C86.7285 142.813 86.2555 143 85.6835 143C85.1115 143 84.6385 142.813 84.2645 142.439C83.8905 142.043 83.7035 141.559 83.7035 140.987V139.37L84.4295 139.667C84.4295 139.953 84.2755 140.305 83.9675 140.723C83.6595 141.119 83.2415 141.515 82.7135 141.911C82.1855 142.307 81.5585 142.648 80.8325 142.934C80.1285 143.198 79.3585 143.33 78.5225 143.33C77.0045 143.33 75.6295 142.945 74.3975 142.175C73.1655 141.383 72.1865 140.305 71.4605 138.941C70.7565 137.555 70.4045 135.971 70.4045 134.189C70.4045 132.385 70.7565 130.801 71.4605 129.437C72.1865 128.051 73.1545 126.973 74.3645 126.203C75.5745 125.411 76.9165 125.015 78.3905 125.015C79.3365 125.015 80.2055 125.158 80.9975 125.444C81.7895 125.73 82.4715 126.093 83.0435 126.533C83.6375 126.973 84.0885 127.424 84.3965 127.886C84.7265 128.326 84.8915 128.7 84.8915 129.008L83.7035 129.437V127.028C83.7035 126.456 83.8905 125.983 84.2645 125.609C84.6385 125.213 85.1115 125.015 85.6835 125.015ZM79.0175 139.7C79.9855 139.7 80.8325 139.458 81.5585 138.974C82.2845 138.49 82.8455 137.83 83.2415 136.994C83.6595 136.158 83.8685 135.223 83.8685 134.189C83.8685 133.133 83.6595 132.187 83.2415 131.351C82.8455 130.515 82.2845 129.855 81.5585 129.371C80.8325 128.887 79.9855 128.645 79.0175 128.645C78.0715 128.645 77.2355 128.887 76.5095 129.371C75.7835 129.855 75.2115 130.515 74.7935 131.351C74.3975 132.187 74.1995 133.133 74.1995 134.189C74.1995 135.223 74.3975 136.158 74.7935 136.994C75.2115 137.83 75.7835 138.49 76.5095 138.974C77.2355 139.458 78.0715 139.7 79.0175 139.7ZM107.461 143C106.889 143 106.416 142.813 106.042 142.439C105.668 142.043 105.481 141.559 105.481 140.987V127.358C105.481 126.786 105.668 126.313 106.042 125.939C106.416 125.543 106.889 125.345 107.461 125.345C108.033 125.345 108.506 125.543 108.88 125.939C109.254 126.313 109.441 126.786 109.441 127.358V130.46L109.21 128.249C109.452 127.721 109.76 127.259 110.134 126.863C110.53 126.445 110.97 126.104 111.454 125.84C111.938 125.554 112.455 125.345 113.005 125.213C113.555 125.081 114.105 125.015 114.655 125.015C115.315 125.015 115.865 125.202 116.305 125.576C116.767 125.95 116.998 126.39 116.998 126.896C116.998 127.622 116.811 128.15 116.437 128.48C116.063 128.788 115.656 128.942 115.216 128.942C114.798 128.942 114.413 128.865 114.061 128.711C113.731 128.557 113.346 128.48 112.906 128.48C112.51 128.48 112.103 128.579 111.685 128.777C111.289 128.953 110.915 129.239 110.563 129.635C110.233 130.031 109.958 130.526 109.738 131.12C109.54 131.692 109.441 132.374 109.441 133.166V140.987C109.441 141.559 109.254 142.043 108.88 142.439C108.506 142.813 108.033 143 107.461 143ZM142.758 125.015C144.386 125.015 145.618 125.356 146.454 126.038C147.312 126.72 147.895 127.633 148.203 128.777C148.533 129.899 148.698 131.153 148.698 132.539V140.987C148.698 141.559 148.511 142.043 148.137 142.439C147.763 142.813 147.29 143 146.718 143C146.146 143 145.673 142.813 145.299 142.439C144.925 142.043 144.738 141.559 144.738 140.987V132.539C144.738 131.813 144.639 131.164 144.441 130.592C144.265 129.998 143.935 129.525 143.451 129.173C142.967 128.821 142.274 128.645 141.372 128.645C140.492 128.645 139.744 128.821 139.128 129.173C138.534 129.525 138.072 129.998 137.742 130.592C137.434 131.164 137.28 131.813 137.28 132.539V140.987C137.28 141.559 137.093 142.043 136.719 142.439C136.345 142.813 135.872 143 135.3 143C134.728 143 134.255 142.813 133.881 142.439C133.507 142.043 133.32 141.559 133.32 140.987V127.358C133.32 126.786 133.507 126.313 133.881 125.939C134.255 125.543 134.728 125.345 135.3 125.345C135.872 125.345 136.345 125.543 136.719 125.939C137.093 126.313 137.28 126.786 137.28 127.358V128.777L136.785 128.678C136.983 128.304 137.269 127.908 137.643 127.49C138.017 127.05 138.457 126.643 138.963 126.269C139.469 125.895 140.041 125.598 140.679 125.378C141.317 125.136 142.01 125.015 142.758 125.015ZM170.237 140.987C170.237 141.559 170.05 142.043 169.676 142.439C169.302 142.813 168.829 143 168.257 143C167.685 143 167.212 142.813 166.838 142.439C166.464 142.043 166.277 141.559 166.277 140.987V127.358C166.277 126.786 166.464 126.313 166.838 125.939C167.212 125.543 167.685 125.345 168.257 125.345C168.829 125.345 169.302 125.543 169.676 125.939C170.05 126.313 170.237 126.786 170.237 127.358V140.987ZM168.224 123.2C167.476 123.2 166.948 123.079 166.64 122.837C166.332 122.595 166.178 122.166 166.178 121.55V120.923C166.178 120.285 166.343 119.856 166.673 119.636C167.025 119.394 167.553 119.273 168.257 119.273C169.027 119.273 169.566 119.394 169.874 119.636C170.182 119.878 170.336 120.307 170.336 120.923V121.55C170.336 122.188 170.171 122.628 169.841 122.87C169.511 123.09 168.972 123.2 168.224 123.2ZM197.275 125.015C198.903 125.015 200.135 125.356 200.971 126.038C201.829 126.72 202.412 127.633 202.72 128.777C203.05 129.899 203.215 131.153 203.215 132.539V140.987C203.215 141.559 203.028 142.043 202.654 142.439C202.28 142.813 201.807 143 201.235 143C200.663 143 200.19 142.813 199.816 142.439C199.442 142.043 199.255 141.559 199.255 140.987V132.539C199.255 131.813 199.156 131.164 198.958 130.592C198.782 129.998 198.452 129.525 197.968 129.173C197.484 128.821 196.791 128.645 195.889 128.645C195.009 128.645 194.261 128.821 193.645 129.173C193.051 129.525 192.589 129.998 192.259 130.592C191.951 131.164 191.797 131.813 191.797 132.539V140.987C191.797 141.559 191.61 142.043 191.236 142.439C190.862 142.813 190.389 143 189.817 143C189.245 143 188.772 142.813 188.398 142.439C188.024 142.043 187.837 141.559 187.837 140.987V127.358C187.837 126.786 188.024 126.313 188.398 125.939C188.772 125.543 189.245 125.345 189.817 125.345C190.389 125.345 190.862 125.543 191.236 125.939C191.61 126.313 191.797 126.786 191.797 127.358V128.777L191.302 128.678C191.5 128.304 191.786 127.908 192.16 127.49C192.534 127.05 192.974 126.643 193.48 126.269C193.986 125.895 194.558 125.598 195.196 125.378C195.834 125.136 196.527 125.015 197.275 125.015ZM228.351 125.015C229.275 125.015 230.122 125.158 230.892 125.444C231.662 125.73 232.322 126.093 232.872 126.533C233.444 126.973 233.884 127.424 234.192 127.886C234.522 128.326 234.687 128.7 234.687 129.008L233.829 129.437V127.028C233.829 126.456 234.016 125.983 234.39 125.609C234.764 125.213 235.237 125.015 235.809 125.015C236.381 125.015 236.854 125.202 237.228 125.576C237.602 125.95 237.789 126.434 237.789 127.028V141.713C237.789 143.627 237.371 145.156 236.535 146.3C235.721 147.466 234.643 148.302 233.301 148.808C231.959 149.336 230.518 149.6 228.978 149.6C228.538 149.6 227.966 149.545 227.262 149.435C226.558 149.325 225.887 149.193 225.249 149.039C224.611 148.885 224.127 148.742 223.797 148.61C223.137 148.324 222.675 147.961 222.411 147.521C222.169 147.103 222.125 146.652 222.279 146.168C222.477 145.53 222.796 145.09 223.236 144.848C223.676 144.628 224.138 144.606 224.622 144.782C224.842 144.848 225.205 144.98 225.711 145.178C226.217 145.376 226.767 145.552 227.361 145.706C227.977 145.882 228.516 145.97 228.978 145.97C230.628 145.97 231.849 145.64 232.641 144.98C233.433 144.32 233.829 143.407 233.829 142.241V139.37L234.225 139.667C234.225 139.953 234.071 140.305 233.763 140.723C233.477 141.119 233.07 141.515 232.542 141.911C232.036 142.307 231.431 142.648 230.727 142.934C230.023 143.198 229.275 143.33 228.483 143.33C226.921 143.33 225.513 142.945 224.259 142.175C223.005 141.383 222.015 140.305 221.289 138.941C220.563 137.555 220.2 135.971 220.2 134.189C220.2 132.385 220.563 130.801 221.289 129.437C222.015 128.051 222.994 126.973 224.226 126.203C225.458 125.411 226.833 125.015 228.351 125.015ZM228.978 128.645C227.988 128.645 227.119 128.887 226.371 129.371C225.623 129.855 225.04 130.515 224.622 131.351C224.204 132.187 223.995 133.133 223.995 134.189C223.995 135.223 224.204 136.158 224.622 136.994C225.04 137.83 225.623 138.49 226.371 138.974C227.119 139.458 227.988 139.7 228.978 139.7C229.99 139.7 230.87 139.458 231.618 138.974C232.366 138.49 232.949 137.83 233.367 136.994C233.785 136.158 233.994 135.223 233.994 134.189C233.994 133.133 233.785 132.187 233.367 131.351C232.949 130.515 232.366 129.855 231.618 129.371C230.87 128.887 229.99 128.645 228.978 128.645ZM287.519 125.015C289.059 125.015 290.434 125.411 291.644 126.203C292.876 126.973 293.844 128.04 294.548 129.404C295.274 130.768 295.637 132.352 295.637 134.156C295.637 135.96 295.274 137.555 294.548 138.941C293.844 140.305 292.887 141.383 291.677 142.175C290.489 142.945 289.147 143.33 287.651 143.33C286.771 143.33 285.946 143.187 285.176 142.901C284.406 142.615 283.724 142.252 283.13 141.812C282.558 141.372 282.107 140.932 281.777 140.492C281.469 140.03 281.315 139.645 281.315 139.337L282.338 138.908V147.587C282.338 148.159 282.151 148.632 281.777 149.006C281.403 149.402 280.93 149.6 280.358 149.6C279.786 149.6 279.313 149.413 278.939 149.039C278.565 148.665 278.378 148.181 278.378 147.587V127.358C278.378 126.786 278.565 126.313 278.939 125.939C279.313 125.543 279.786 125.345 280.358 125.345C280.93 125.345 281.403 125.543 281.777 125.939C282.151 126.313 282.338 126.786 282.338 127.358V128.975L281.777 128.678C281.777 128.392 281.931 128.051 282.239 127.655C282.547 127.237 282.965 126.83 283.493 126.434C284.021 126.016 284.626 125.675 285.308 125.411C286.012 125.147 286.749 125.015 287.519 125.015ZM287.024 128.645C286.056 128.645 285.209 128.887 284.483 129.371C283.757 129.855 283.185 130.515 282.767 131.351C282.371 132.165 282.173 133.1 282.173 134.156C282.173 135.19 282.371 136.136 282.767 136.994C283.185 137.83 283.757 138.49 284.483 138.974C285.209 139.458 286.056 139.7 287.024 139.7C287.992 139.7 288.828 139.458 289.532 138.974C290.258 138.49 290.819 137.83 291.215 136.994C291.633 136.136 291.842 135.19 291.842 134.156C291.842 133.1 291.633 132.165 291.215 131.351C290.819 130.515 290.258 129.855 289.532 129.371C288.828 128.887 287.992 128.645 287.024 128.645ZM327.084 125.015C327.656 125.015 328.129 125.202 328.503 125.576C328.877 125.95 329.064 126.434 329.064 127.028V140.987C329.064 141.559 328.877 142.043 328.503 142.439C328.129 142.813 327.656 143 327.084 143C326.512 143 326.039 142.813 325.665 142.439C325.291 142.043 325.104 141.559 325.104 140.987V139.37L325.83 139.667C325.83 139.953 325.676 140.305 325.368 140.723C325.06 141.119 324.642 141.515 324.114 141.911C323.586 142.307 322.959 142.648 322.233 142.934C321.529 143.198 320.759 143.33 319.923 143.33C318.405 143.33 317.03 142.945 315.798 142.175C314.566 141.383 313.587 140.305 312.861 138.941C312.157 137.555 311.805 135.971 311.805 134.189C311.805 132.385 312.157 130.801 312.861 129.437C313.587 128.051 314.555 126.973 315.765 126.203C316.975 125.411 318.317 125.015 319.791 125.015C320.737 125.015 321.606 125.158 322.398 125.444C323.19 125.73 323.872 126.093 324.444 126.533C325.038 126.973 325.489 127.424 325.797 127.886C326.127 128.326 326.292 128.7 326.292 129.008L325.104 129.437V127.028C325.104 126.456 325.291 125.983 325.665 125.609C326.039 125.213 326.512 125.015 327.084 125.015ZM320.418 139.7C321.386 139.7 322.233 139.458 322.959 138.974C323.685 138.49 324.246 137.83 324.642 136.994C325.06 136.158 325.269 135.223 325.269 134.189C325.269 133.133 325.06 132.187 324.642 131.351C324.246 130.515 323.685 129.855 322.959 129.371C322.233 128.887 321.386 128.645 320.418 128.645C319.472 128.645 318.636 128.887 317.91 129.371C317.184 129.855 316.612 130.515 316.194 131.351C315.798 132.187 315.6 133.133 315.6 134.189C315.6 135.223 315.798 136.158 316.194 136.994C316.612 137.83 317.184 138.49 317.91 138.974C318.636 139.458 319.472 139.7 320.418 139.7ZM348.861 143C348.289 143 347.816 142.813 347.442 142.439C347.068 142.043 346.881 141.559 346.881 140.987V127.358C346.881 126.786 347.068 126.313 347.442 125.939C347.816 125.543 348.289 125.345 348.861 125.345C349.433 125.345 349.906 125.543 350.28 125.939C350.654 126.313 350.841 126.786 350.841 127.358V130.46L350.61 128.249C350.852 127.721 351.16 127.259 351.534 126.863C351.93 126.445 352.37 126.104 352.854 125.84C353.338 125.554 353.855 125.345 354.405 125.213C354.955 125.081 355.505 125.015 356.055 125.015C356.715 125.015 357.265 125.202 357.705 125.576C358.167 125.95 358.398 126.39 358.398 126.896C358.398 127.622 358.211 128.15 357.837 128.48C357.463 128.788 357.056 128.942 356.616 128.942C356.198 128.942 355.813 128.865 355.461 128.711C355.131 128.557 354.746 128.48 354.306 128.48C353.91 128.48 353.503 128.579 353.085 128.777C352.689 128.953 352.315 129.239 351.963 129.635C351.633 130.031 351.358 130.526 351.138 131.12C350.94 131.692 350.841 132.374 350.841 133.166V140.987C350.841 141.559 350.654 142.043 350.28 142.439C349.906 142.813 349.433 143 348.861 143ZM374.918 125.675H382.739C383.267 125.675 383.707 125.851 384.059 126.203C384.411 126.555 384.587 126.995 384.587 127.523C384.587 128.029 384.411 128.458 384.059 128.81C383.707 129.14 383.267 129.305 382.739 129.305H374.918C374.39 129.305 373.95 129.129 373.598 128.777C373.246 128.425 373.07 127.985 373.07 127.457C373.07 126.951 373.246 126.533 373.598 126.203C373.95 125.851 374.39 125.675 374.918 125.675ZM378.449 121.55C379.021 121.55 379.483 121.748 379.835 122.144C380.209 122.518 380.396 122.991 380.396 123.563V138.248C380.396 138.556 380.451 138.809 380.561 139.007C380.693 139.205 380.858 139.348 381.056 139.436C381.276 139.524 381.507 139.568 381.749 139.568C382.013 139.568 382.255 139.524 382.475 139.436C382.695 139.326 382.948 139.271 383.234 139.271C383.542 139.271 383.817 139.414 384.059 139.7C384.323 139.986 384.455 140.382 384.455 140.888C384.455 141.504 384.114 142.01 383.432 142.406C382.772 142.802 382.057 143 381.287 143C380.825 143 380.308 142.967 379.736 142.901C379.186 142.813 378.658 142.626 378.152 142.34C377.668 142.032 377.261 141.57 376.931 140.954C376.601 140.338 376.436 139.491 376.436 138.413V123.563C376.436 122.991 376.623 122.518 376.997 122.144C377.393 121.748 377.877 121.55 378.449 121.55ZM411.191 125.015C412.819 125.015 414.051 125.356 414.887 126.038C415.745 126.72 416.328 127.633 416.636 128.777C416.966 129.899 417.131 131.153 417.131 132.539V140.987C417.131 141.559 416.944 142.043 416.57 142.439C416.196 142.813 415.723 143 415.151 143C414.579 143 414.106 142.813 413.732 142.439C413.358 142.043 413.171 141.559 413.171 140.987V132.539C413.171 131.813 413.072 131.164 412.874 130.592C412.698 129.998 412.368 129.525 411.884 129.173C411.4 128.821 410.707 128.645 409.805 128.645C408.925 128.645 408.177 128.821 407.561 129.173C406.967 129.525 406.505 129.998 406.175 130.592C405.867 131.164 405.713 131.813 405.713 132.539V140.987C405.713 141.559 405.526 142.043 405.152 142.439C404.778 142.813 404.305 143 403.733 143C403.161 143 402.688 142.813 402.314 142.439C401.94 142.043 401.753 141.559 401.753 140.987V127.358C401.753 126.786 401.94 126.313 402.314 125.939C402.688 125.543 403.161 125.345 403.733 125.345C404.305 125.345 404.778 125.543 405.152 125.939C405.526 126.313 405.713 126.786 405.713 127.358V128.777L405.218 128.678C405.416 128.304 405.702 127.908 406.076 127.49C406.45 127.05 406.89 126.643 407.396 126.269C407.902 125.895 408.474 125.598 409.112 125.378C409.75 125.136 410.443 125.015 411.191 125.015ZM443.257 143.33C441.387 143.33 439.759 142.945 438.373 142.175C437.009 141.383 435.953 140.316 435.205 138.974C434.479 137.632 434.116 136.114 434.116 134.42C434.116 132.44 434.512 130.757 435.304 129.371C436.118 127.963 437.174 126.885 438.472 126.137C439.77 125.389 441.145 125.015 442.597 125.015C443.719 125.015 444.775 125.246 445.765 125.708C446.777 126.17 447.668 126.808 448.438 127.622C449.208 128.414 449.813 129.338 450.253 130.394C450.715 131.45 450.946 132.572 450.946 133.76C450.924 134.288 450.715 134.717 450.319 135.047C449.923 135.377 449.461 135.542 448.933 135.542H436.327L435.337 132.242H447.448L446.722 132.902V132.011C446.678 131.373 446.447 130.801 446.029 130.295C445.633 129.789 445.127 129.393 444.511 129.107C443.917 128.799 443.279 128.645 442.597 128.645C441.937 128.645 441.321 128.733 440.749 128.909C440.177 129.085 439.682 129.382 439.264 129.8C438.846 130.218 438.516 130.779 438.274 131.483C438.032 132.187 437.911 133.078 437.911 134.156C437.911 135.344 438.153 136.356 438.637 137.192C439.143 138.006 439.781 138.633 440.551 139.073C441.343 139.491 442.179 139.7 443.059 139.7C443.873 139.7 444.522 139.634 445.006 139.502C445.49 139.37 445.875 139.216 446.161 139.04C446.469 138.842 446.744 138.677 446.986 138.545C447.382 138.347 447.756 138.248 448.108 138.248C448.592 138.248 448.988 138.413 449.296 138.743C449.626 139.073 449.791 139.458 449.791 139.898C449.791 140.492 449.483 141.031 448.867 141.515C448.295 141.999 447.492 142.428 446.458 142.802C445.424 143.154 444.357 143.33 443.257 143.33ZM469.916 143C469.344 143 468.871 142.813 468.497 142.439C468.123 142.043 467.936 141.559 467.936 140.987V127.358C467.936 126.786 468.123 126.313 468.497 125.939C468.871 125.543 469.344 125.345 469.916 125.345C470.488 125.345 470.961 125.543 471.335 125.939C471.709 126.313 471.896 126.786 471.896 127.358V130.46L471.665 128.249C471.907 127.721 472.215 127.259 472.589 126.863C472.985 126.445 473.425 126.104 473.909 125.84C474.393 125.554 474.91 125.345 475.46 125.213C476.01 125.081 476.56 125.015 477.11 125.015C477.77 125.015 478.32 125.202 478.76 125.576C479.222 125.95 479.453 126.39 479.453 126.896C479.453 127.622 479.266 128.15 478.892 128.48C478.518 128.788 478.111 128.942 477.671 128.942C477.253 128.942 476.868 128.865 476.516 128.711C476.186 128.557 475.801 128.48 475.361 128.48C474.965 128.48 474.558 128.579 474.14 128.777C473.744 128.953 473.37 129.239 473.018 129.635C472.688 130.031 472.413 130.526 472.193 131.12C471.995 131.692 471.896 132.374 471.896 133.166V140.987C471.896 141.559 471.709 142.043 471.335 142.439C470.961 142.813 470.488 143 469.916 143Z" fill="#A9A9A9"/>
<path d="M77.9997 27.8037C77.643 29.0603 76.3352 29.7898 75.0786 29.4331C73.8219 29.0763 73.0925 27.7686 73.4492 26.512" fill="#B2B2B2"/>
<path d="M82.5356 20.0558L82.5964 19.8413C82.9043 18.7568 83.6464 17.8616 84.6255 17.3033C86.4311 16.2735 87.8499 14.563 88.4624 12.4053C89.7557 7.84941 86.9435 3.09981 82.2287 2.10613C78.2609 1.26995 74.3399 3.39397 72.8824 7.17829C71.9807 9.51895 72.2104 11.9683 73.266 13.9797C73.8411 15.0755 73.9996 16.3423 73.6615 17.5331C73.4591 18.2463 73.8728 18.9885 74.5858 19.1915L80.8762 20.9808C81.5899 21.1837 82.3329 20.7696 82.5356 20.0558Z" fill="#FFB637"/>
<path d="M79.9488 25.8095L72.8386 23.7911C72.1903 23.6071 71.8105 22.9261 71.9945 22.2778C72.1785 21.6296 72.8595 21.2497 73.5078 21.4337L80.6183 23.4522C81.2666 23.6362 81.6465 24.3172 81.4624 24.9655C81.2784 25.6138 80.5974 25.9936 79.9488 25.8095Z" fill="#B2B2B2"/>
<path d="M78.2101 27.8635L73.2385 26.4522C72.5902 26.2682 72.2104 25.5872 72.3944 24.939C72.5784 24.2907 73.2594 23.9108 73.9077 24.0949L78.8793 25.5061C79.5275 25.6902 79.9074 26.3712 79.7233 27.0194C79.5393 27.6677 78.8583 28.0476 78.2101 27.8635Z" fill="#CCCCCC"/>
<path d="M80.618 23.4518L73.5078 21.4334C72.8595 21.2494 72.4797 20.5684 72.6637 19.9202C72.8477 19.2719 73.5287 18.892 74.177 19.0761L81.2875 21.0945C81.9358 21.2786 82.3156 21.9596 82.1316 22.6078C81.9476 23.2561 81.2666 23.636 80.618 23.4518Z" fill="#CCCCCC"/>
<path d="M88.6475 49.2174C87.9161 53.0475 87.9116 55.2892 87.5916 58.4865L102.181 74.0914C106.724 45.0536 101.559 38.1046 93.7284 30.7293C85.8974 23.354 85.0663 23.4853 86.3524 19.861C87.6385 16.2368 88.9 13.3461 83.7412 16.9838C81.94 18.2539 81.7722 21.0159 76.6294 18.0699C69.318 11.8207 73.9781 22.8239 74.8485 23.7829C75.5448 24.5502 77.2375 26.4019 77.9967 27.2319L88.6475 49.2174Z" fill="#FE7981"/>
<path d="M43.8547 62.6622L5 75.7661C20.7317 113.167 65.6432 116.466 87.6615 103.726L102.289 73.7853L87.6615 56.9482C72.6072 76.7565 52.1844 69.011 43.8547 62.6622Z" fill="#0374F9"/>
<path d="M54.9778 55.8815C66.7409 56.0644 61.352 41.8887 57.1872 34.7781C50.5336 35.286 36.4647 38.755 33.4173 48.5677C30.3698 58.3804 45.6578 65.8188 53.6827 66.606L54.9778 55.8815Z" fill="#FE7981"/>
<path d="M47.0434 32.0129C47.8304 32.2715 48.678 31.8431 48.9366 31.056C49.1952 30.269 48.7668 29.4214 47.9798 29.1628L47.0434 32.0129ZM47.9798 29.1628C45.165 28.2379 40.7444 27.4416 36.5985 28.123C32.3825 28.8159 28.2703 31.096 26.7203 36.4154L29.6005 37.2547C30.7322 33.3709 33.6292 31.6512 37.085 31.0833C40.611 30.5038 44.5252 31.1855 47.0434 32.0129L47.9798 29.1628ZM26.7203 36.4154C25.3582 41.0899 25.4929 44.2458 26.9055 46.1362C28.4115 48.1515 30.808 48.081 32.2541 47.6409L31.3806 44.7709C30.4903 45.0418 29.7175 44.8875 29.3087 44.3404C28.8065 43.6684 28.2809 41.7834 29.6005 37.2547L26.7203 36.4154Z" fill="#AF6E6E"/>
<path d="M41.1129 65.2333C41.9018 64.9804 42.3362 64.1358 42.0833 63.3469C41.8303 62.5581 40.9858 62.1236 40.1969 62.3766L41.1129 65.2333ZM22.4055 46.4676C22.8791 50.2689 24.3152 55.8084 27.1734 59.9906C28.6118 62.0953 30.467 63.9386 32.8239 64.9867C35.215 66.0501 37.9896 66.2348 41.1129 65.2333L40.1969 62.3766C37.7129 63.1731 35.7031 62.9839 34.043 62.2456C32.3487 61.4921 30.886 60.1061 29.6503 58.2979C27.1603 54.6546 25.8233 49.6348 25.3825 46.0968L22.4055 46.4676Z" fill="#AF6E6E"/>
<path d="M58.3132 88.8312C58.8388 89.4716 59.784 89.5646 60.4244 89.039C61.0647 88.5134 61.1578 87.5683 60.6322 86.9279L58.3132 88.8312ZM32.4675 75.8563C34.0216 77.8287 38.6002 81.4464 45.241 81.38L45.211 78.3801C39.662 78.4356 35.911 75.3794 34.824 73.9997L32.4675 75.8563ZM45.241 81.38C47.8634 81.3538 50.574 82.5062 52.9783 84.0982C55.3662 85.6793 57.2947 87.5902 58.3132 88.8312L60.6322 86.9279C59.4413 85.477 57.2939 83.3577 54.6345 81.5968C51.9914 79.8467 48.6834 78.3454 45.211 78.3801L45.241 81.38Z" fill="#AF6E6E"/>
<path d="M49.2266 45.966C49.0307 46.5618 48.8764 48.0881 49.8262 49.4264" stroke="#B94A40" stroke-width="3" stroke-linecap="round"/>
<path d="M58.6348 41.5586C58.8379 42.2189 59.1224 43.6308 58.6348 43.9965C59.0411 44.0473 59.808 44.3013 59.6252 44.9108" stroke="#B84A40" stroke-width="3"/>
<path d="M50.5595 43.4634C46.2324 40.0905 44.71 43.4634 48.0453 51.9962C55.7741 71.769 72.9433 75.1905 82.0094 65.5911C81.8824 67.1656 77.3007 72.2006 73.9485 77.747C69.7583 84.6799 57.6448 98.2787 50.5595 90.9649C43.4742 83.6511 40.0456 92.0589 29.3796 88.5543C18.7136 85.0498 25.7226 78.4216 20.3896 67.6795C15.0566 56.9373 17.1425 39.2633 23.6499 30.588C34.0323 16.7467 54.5212 23.2741 57.721 30.588C60.9208 37.9018 58.3233 49.5151 50.5595 43.4634Z" fill="#191919" stroke="#2A2A2A"/>
<path d="M60.3752 46.1802C61.391 46.942 62.9046 48.5115 60.8323 48.6943C58.7601 48.8772 59.6641 47.0944 60.3752 46.1802Z" fill="#FE7981" stroke="#FE7981" stroke-width="6"/>
<ellipse cx="48.8965" cy="31.5903" rx="13.1943" ry="10.2764" fill="#191919"/>
<ellipse cx="20.2555" cy="73.837" rx="13.4249" ry="17.0863" fill="#191919"/>
<path d="M140.614 101.975H126V47.1007H129.533L134.351 52.4293C136.706 50.3799 139.365 48.8086 142.327 47.7155C145.325 46.5883 148.447 46.0247 151.695 46.0247C155.192 46.0247 158.493 46.6737 161.598 47.9717C164.703 49.2356 167.415 50.9947 169.735 53.2491C172.054 55.4694 173.874 58.0824 175.195 61.0883C176.551 64.0601 177.229 67.2367 177.229 70.6184V101.975H162.615V70.6184C162.615 69.1837 162.33 67.8345 161.759 66.5707C161.188 65.2727 160.403 64.1455 159.403 63.189C158.404 62.2326 157.244 61.4812 155.924 60.9346C154.603 60.3881 153.194 60.1148 151.695 60.1148C150.16 60.1148 148.715 60.3881 147.359 60.9346C146.003 61.4812 144.825 62.2326 143.826 63.189C142.827 64.1455 142.041 65.2727 141.47 66.5707C140.899 67.8345 140.614 69.1837 140.614 70.6184V101.975Z" fill="#767676"/>
<path d="M202.389 101.975H187.668V47.1007H202.389V101.975Z" fill="#767676"/>
<path d="M228.191 101.975H213.577V47.1007H217.11L221.927 52.4293C224.283 50.3799 226.941 48.8086 229.904 47.7155C232.901 46.5883 236.024 46.0247 239.271 46.0247C242.769 46.0247 246.07 46.6737 249.175 47.9717C252.279 49.2356 254.992 50.9947 257.311 53.2491C259.631 55.4694 261.451 58.0824 262.772 61.0883C264.128 64.0601 264.806 67.2367 264.806 70.6184V101.975H250.192V70.6184C250.192 69.1837 249.906 67.8345 249.335 66.5707C248.764 65.2727 247.979 64.1455 246.98 63.189C245.981 62.2326 244.821 61.4812 243.5 60.9346C242.18 60.3881 240.77 60.1148 239.271 60.1148C237.737 60.1148 236.292 60.3881 234.935 60.9346C233.579 61.4812 232.402 62.2326 231.402 63.189C230.403 64.1455 229.618 65.2727 229.047 66.5707C228.476 67.8345 228.191 69.1837 228.191 70.6184V101.975Z" fill="#767676"/>
<path d="M330.756 101.975H327.223L321.548 94.4435C320.157 95.639 318.676 96.7662 317.105 97.8251C315.571 98.8498 313.947 99.755 312.234 100.541C310.521 101.292 308.755 101.89 306.935 102.334C305.15 102.778 303.33 103 301.474 103C297.442 103 293.641 102.351 290.072 101.053C286.539 99.755 283.434 97.8763 280.758 95.417C278.117 92.9234 276.029 89.8834 274.495 86.2968C272.96 82.7102 272.193 78.6284 272.193 74.0512C272.193 69.7815 272.96 65.8704 274.495 62.318C276.029 58.7314 278.117 55.6572 280.758 53.0954C283.434 50.5336 286.539 48.5524 290.072 47.1519C293.641 45.7173 297.442 45 301.474 45C303.33 45 305.168 45.222 306.988 45.6661C308.808 46.1101 310.575 46.725 312.288 47.5106C314.001 48.2962 315.624 49.2185 317.159 50.2774C318.729 51.3363 320.192 52.4806 321.548 53.7102L327.223 47.2032H330.756V101.975ZM316.035 74.0512C316.035 72.1384 315.642 70.2939 314.857 68.5177C314.108 66.7073 313.073 65.119 311.752 63.7527C310.432 62.3522 308.879 61.2421 307.095 60.4223C305.346 59.5683 303.473 59.1413 301.474 59.1413C299.476 59.1413 297.584 59.4658 295.8 60.1148C294.051 60.7638 292.517 61.7203 291.196 62.9841C289.912 64.2479 288.895 65.8192 288.145 67.6979C287.396 69.5424 287.021 71.6602 287.021 74.0512C287.021 76.4423 287.396 78.5771 288.145 80.4558C288.895 82.3004 289.912 83.8545 291.196 85.1184C292.517 86.3822 294.051 87.3386 295.8 87.9876C297.584 88.6366 299.476 88.9611 301.474 88.9611C303.473 88.9611 305.346 88.5512 307.095 87.7314C308.879 86.8775 310.432 85.7674 311.752 84.4011C313.073 83.0006 314.108 81.4123 314.857 79.636C315.642 77.8257 316.035 75.9641 316.035 74.0512Z" fill="#767676"/>
<path d="M356.665 101.975H341.944V47.1007H356.665V101.975Z" fill="#767676"/>
<path d="M384.126 101.975L362.285 47.1007H378.934L391.46 81.3269L403.933 47.1007H420.634L398.794 101.975H384.126Z" fill="#767676"/>
<path d="M480 101.975H476.467L470.793 94.4435C469.401 95.639 467.92 96.7662 466.35 97.8251C464.815 98.8498 463.191 99.755 461.478 100.541C459.765 101.292 457.999 101.89 456.179 102.334C454.394 102.778 452.574 103 450.719 103C446.686 103 442.885 102.351 439.316 101.053C435.783 99.755 432.679 97.8763 430.002 95.417C427.361 92.9234 425.274 89.8834 423.739 86.2968C422.204 82.7102 421.437 78.6284 421.437 74.0512C421.437 69.7815 422.204 65.8704 423.739 62.318C425.274 58.7314 427.361 55.6572 430.002 53.0954C432.679 50.5336 435.783 48.5524 439.316 47.1519C442.885 45.7173 446.686 45 450.719 45C452.574 45 454.412 45.222 456.232 45.6661C458.052 46.1101 459.819 46.725 461.532 47.5106C463.245 48.2962 464.869 49.2185 466.403 50.2774C467.973 51.3363 469.437 52.4806 470.793 53.7102L476.467 47.2032H480V101.975ZM465.279 74.0512C465.279 72.1384 464.886 70.2939 464.101 68.5177C463.352 66.7073 462.317 65.119 460.997 63.7527C459.676 62.3522 458.124 61.2421 456.339 60.4223C454.591 59.5683 452.717 59.1413 450.719 59.1413C448.72 59.1413 446.829 59.4658 445.044 60.1148C443.296 60.7638 441.761 61.7203 440.441 62.9841C439.156 64.2479 438.139 65.8192 437.389 67.6979C436.64 69.5424 436.265 71.6602 436.265 74.0512C436.265 76.4423 436.64 78.5771 437.389 80.4558C438.139 82.3004 439.156 83.8545 440.441 85.1184C441.761 86.3822 443.296 87.3386 445.044 87.9876C446.829 88.6366 448.72 88.9611 450.719 88.9611C452.717 88.9611 454.591 88.5512 456.339 87.7314C458.124 86.8775 459.676 85.7674 460.997 84.4011C462.317 83.0006 463.352 81.4123 464.101 79.636C464.886 77.8257 465.279 75.9641 465.279 74.0512Z" fill="#767676"/>
</svg>
